# AST/ASF file generated using VICON BodyLanguage
# -----------------------------------------------
:version 1.10
:name VICON
:units
  mass 1.0
  length 0.45
  angle deg
:documentation
   .ast/.asf automatically generated from VICON data using
   VICON BodyBuilder and BodyLanguage model FoxedUp or BRILLIANT.MOD
:root
   order TX TY TZ RX RY RZ
   axis XYZ
   position 0 0 0  
   orientation 0 0 0 
:bonedata
  begin
     id 1 
     name lhipjoint
     direction 0.650112 -0.723553 0.232005 
     length 2.45805 
     axis 0 0 0  XYZ
  end
  begin
     id 2 
     name lfemur
     direction 0.34202 -0.939693 0  
     length 7.00073  
     axis 0 0 20  XYZ
    dof rx ry rz
    limits (-160.0 20.0)
           (-70.0 70.0)
           (-60.0 70.0)
  end
  begin
     id 3 
     name ltibia
     direction 0.34202 -0.939693 0   
     length 7.8748   
     axis 0 0 20   XYZ
    dof rx
    limits (-10.0 170.0)
  end
  begin
     id 4 
     name lfoot
     direction 0.0542825 -0.14914 0.987325   
     length 1.75978   
     axis -90 7.62852e-016 20   XYZ
    dof rx rz
    limits (-45.0 90.0)
           (-70.0 20.0)
  end
  begin
     id 5 
     name ltoes
     direction 1.53509e-011 -4.21906e-011 1   
     length 0.893912   
     axis -90 7.62852e-016 20   XYZ
    dof rx
    limits (-90.0 20.0)
  end
  begin
     id 6 
     name rhipjoint
     direction -0.637897 -0.733345 0.235145   
     length 2.42522  
     axis 0 0 0  XYZ 
  end
  begin
     id 7 
     name rfemur
     direction -0.34202 -0.939693 0   
     length 7.02549   
     axis 0 0 -20   XYZ
    dof rx ry rz
    limits (-160.0 20.0)
           (-70.0 70.0)
           (-70.0 60.0)
  end
  begin
     id 8 
     name rtibia
     direction -0.34202 -0.939693 0   
     length 7.71512   
     axis 0 0 -20   XYZ
    dof rx
    limits (-10.0 170.0)
 end
 begin
     id 9 
     name rfoot
     direction -0.0822618 -0.226012 0.970645   
     length 1.90014  
     axis -90 -7.62852e-016 -20   XYZ
    dof rx rz
    limits (-45.0 90.0)
           (-20.0 70.0)
  end
  begin
     id 10 
     name rtoes
     direction -1.53542e-011 -4.21872e-011 1   
     length 0.957341   
     axis -90 -7.62852e-016 -20   XYZ
    dof rx
    limits (-90.0 20.0)
  end
  begin
     id 11 
     name lowerback
     direction -0.0022947 0.999774 -0.0211557   
     length 1.89909   
     axis 0 0 0   XYZ
    dof rx ry rz
    limits (-20.0 45.0)
           (-30.0 30.0)
           (-30.0 30.0)
  end
  begin
     id 12 
     name upperback
     direction 0.0107737 0.998635 0.0511027   
     length 1.8853   
     axis 0 0 0   XYZ
    dof rx ry rz
    limits (-20.0 45.0)
           (-30.0 30.0)
           (-30.0 30.0)
  end
  begin
     id 13 
     name thorax
     direction 0.011824 0.998136 0.0598754   
     length 1.88911   
     axis 0 0 0   XYZ
    dof rx ry rz
    limits (-20.0 45.0)
           (-30.0 30.0)
           (-30.0 30.0)
  end
  begin
     id 14 
     name lowerneck
     direction -0.0685355 0.990319 0.120714   
     length 1.91222   
     axis 0 0 0   XYZ
    dof rx ry rz
    limits (-20.0 45.0)
           (-30.0 30.0)
           (-30.0 30.0)
  end
  begin
     id 15 
     name upperneck
     direction 0.0886204 0.955665 -0.280805   
     length 1.92526   
     axis 0 0 0   XYZ
    dof rx ry rz
    limits (-20.0 45.0)
           (-30.0 30.0)
           (-30.0 30.0)
  end
  begin
     id 16
     name head
     direction 0.0233423 0.993502 -0.111393  
     length 1.96056  
     axis 0 0 0   XYZ
    dof rx ry rz
    limits (-20.0 45.0)
           (-30.0 30.0)
           (-30.0 30.0)
  end
  begin
     id 17 
     name lclavicle
     direction 0.941873 0.32922 0.0670041  
     length 3.31705  
     axis 0 0 0   XYZ
    dof ry rz
    limits (-20.0 10.0)
           (0.0 20.0)
  end
  begin
     id 18 
     name lhumerus
     direction 1 -4.4898e-011 3.38707e-028   
     length 5.29277   
     axis 180 -30 -90   XYZ
    dof rx ry rz
    limits (-60.0 90.0)
           (-90.0 90.0)
           (-90.0 90.0)
  end
  begin
     id 19
     name lradius
     direction 1 -4.48952e-011 1.63213e-028   
     length 2.85226   
     axis 180 -30 -90   XYZ
    dof rx
    limits (-10.0 170.0)
  end
  begin
     id 20
     name lwrist
     direction 1 -4.49001e-011 1.27856e-027   
     length 1.42613   
     axis -1.61767e-015 90 90   XYZ
    dof ry
    limits (-180.0 0.0)
 end
  begin
     id 21 
     name lhand
     direction 1 -4.48976e-011 2.55931e-027   
     length 0.602097   
     axis -1.63363e-015 90 90   XYZ
    dof rx rz
    limits (-90.0 90.0)
           (-45.0 45.0)
  end
  begin
     id 22 
     name lfingers
     direction 1 -4.48986e-011 5.11684e-027   
     length 0.485426   
     axis -3.26723e-015 90 90   XYZ
    dof rx
    limits (0.0 90.0)
  end
  begin
     id 23
     name lthumb
     direction 0.707107 -6.34915e-011 0.707107   
     length 0.696978   
     axis -90 45 -2.25915e-014   XYZ
    dof rx rz
    limits (-45.0 45.0)
           (-45.0 45.0)
  end
  begin
     id 24 
     name rclavicle
     direction -0.939974 0.327078 0.0973096   
     length 3.10337  
     axis 0 0 0   XYZ 
    dof ry rz
    limits (-10.0 20.0)
           (-20.0 0.0)
  end
  begin
     id 25 
     name rhumerus
     direction -1 -4.48975e-011 1.83745e-027  
     length 5.13304   
     axis 180 30 90   XYZ
    dof rx ry rz
    limits (-90.0 60.0)
           (-90.0 90.0)
           (-90.0 90.0)
  end
  begin
     id 26 
     name rradius
     direction -1 -4.48977e-011 7.1775e-029   
     length 2.74305   
     axis 180 30 90   XYZ
    dof rx
    limits (-10.0 170.0)
  end
  begin
     id 27 
     name rwrist
     direction -1 -4.48977e-011 1.27963e-027   
     length 1.37152   
     axis -1.61767e-015 -90 -90   XYZ
    dof ry
    limits (-180.0 0.0)
  end
  begin
     id 28
     name rhand
     direction -1 -4.4888e-011 2.56782e-027   
     length 0.767976   
     axis -1.63363e-015 -90 -90   XYZ
    dof rx rz
    limits (-90.0 90.0)
           (-45.0 45.0)
  end
  begin
     id 29
     name rfingers
     direction -1 -4.48947e-011 5.12384e-027   
     length 0.619162   
     axis -3.26723e-015 -90 -90   XYZ
    dof rx
    limits (0.0 90.0)
  end
  begin
     id 30
     name rthumb
     direction -0.707107 -6.34857e-011 0.707107   
     length 0.888997   
     axis -90 -45 2.25915e-014   XYZ
    dof rx rz
    limits (-45.0 45.0)
           (-45.0 45.0)
  end
:hierarchy
  begin
    root lhipjoint rhipjoint lowerback
    lhipjoint lfemur
    lfemur ltibia
    ltibia lfoot
    lfoot ltoes
    rhipjoint rfemur
    rfemur rtibia
    rtibia rfoot
    rfoot rtoes
    lowerback upperback
    upperback thorax
    thorax lowerneck lclavicle rclavicle
    lowerneck upperneck
    upperneck head
    lclavicle lhumerus
    lhumerus lradius
    lradius lwrist
    lwrist lhand lthumb
    lhand lfingers
    rclavicle rhumerus
    rhumerus rradius
    rradius rwrist
    rwrist rhand rthumb
    rhand rfingers
  end

#!OML:ASF F:\VICON\USERDATA\INSTALL\rory3\rory3.ASF
:FULLY-SPECIFIED
:DEGREES
1389
root -0.347064 16.7932 -0.00112953 -6.4547 27.0072 0.0126968
lowerback 0.85403 1.6161 -0.560257
upperback 5.22549 2.16135 1.10095
thorax 4.84957 1.03991 1.5245
lowerneck 14.7564 -5.44176 -21.6487
upperneck 11.0969 -11.41 21.0075
head 3.25666 -6.42099 10.478
rclavicle 2.06985e-014 1.98785e-015
rhumerus -18.9266 13.5816 -91.5107
rradius 145.825
rwrist -48.7498
rhand 47.0767 20.3889
rfingers 7.12502
rthumb 67.9317 19.0021
lclavicle 2.06985e-014 1.98785e-015
lhumerus -6.42761 -28.1519 94.2051
lradius 142.621
lwrist 62.6372
lhand 47.4148 37.0104
lfingers 7.12502
lthumb 68.1753 37.8153
rfemur 3.83636 -7.01592 21.054
rtibia 29.287
rfoot -24.7109 -21.9626
rtoes -16.7964
lfemur -8.06102 -16.9335 -18.1013
ltibia 34.3762
lfoot -18.4315 -11.6998
ltoes -9.73887
1390
root -0.349957 16.7944 -0.00551627 -6.29504 27.0807 0.142001
lowerback 0.834879 1.60581 -0.651586
upperback 5.18906 2.15011 1.07447
thorax 4.8203 1.03118 1.54754
lowerneck 14.6819 -5.49252 -21.6579
upperneck 11.0611 -11.4613 20.9629
head 3.26895 -6.44317 10.4557
rclavicle -3.62285e-014 -7.95139e-016
rhumerus -19.0234 13.6111 -91.5964
rradius 145.798
rwrist -48.716
rhand 46.956 20.4144
rfingers 7.12502
rthumb 67.8442 18.8231
lclavicle -3.62285e-014 -7.95139e-016
lhumerus -6.20886 -28.3074 94.0758
lradius 142.616
lwrist 62.5839
lhand 47.5536 36.89
lfingers 7.12502
lthumb 68.2747 37.4521
rfemur 3.73754 -7.09409 20.9153
rtibia 29.2622
rfoot -24.759 -21.8693
rtoes -16.5796
lfemur -8.15196 -17.0582 -18.2142
ltibia 34.2965
lfoot -18.3681 -11.6
ltoes -9.65262
1391
root -0.350692 16.7988 -0.0104246 -6.18097 27.1328 0.245803
lowerback 0.831451 1.6014 -0.689512
upperback 5.18411 2.14521 1.06701
thorax 4.81616 1.02732 1.56087
lowerneck 14.5964 -5.54034 -21.7065
upperneck 10.9857 -11.5119 20.9669
head 3.27563 -6.46606 10.4574
rclavicle -4.73604e-014 1.47101e-014
rhumerus -19.118 13.6715 -91.6546
rradius 145.799
rwrist -48.6473
rhand 46.8752 20.5781
rfingers 7.12502
rthumb 67.7854 18.8507
lclavicle -4.73604e-014 1.47101e-014
lhumerus -5.93633 -28.4751 93.9935
lradius 142.607
lwrist 62.5259
lhand 47.6584 36.9794
lfingers 7.12502
lthumb 68.3494 37.3568
rfemur 3.67362 -7.1435 20.7954
rtibia 29.2388
rfoot -24.8021 -21.807
rtoes -16.2725
lfemur -8.20301 -17.1569 -18.3198
ltibia 34.2098
lfoot -18.3433 -11.5367
ltoes -9.77786
1392
root -0.353352 16.8043 -0.0133654 -6.20047 27.1261 0.185477
lowerback 0.883396 1.59435 -0.569724
upperback 5.19946 2.13289 1.0831
thorax 4.80667 1.0261 1.5088
lowerneck 14.5229 -5.54985 -21.7711
upperneck 10.8746 -11.5148 21.022
head 3.26183 -6.46671 10.4836
rclavicle -1.02821e-013 5.96354e-015
rhumerus -19.1781 13.7037 -91.713
rradius 145.832
rwrist -48.6625
rhand 46.8834 20.6662
rfingers 7.12502
rthumb 67.7914 18.9526
lclavicle -1.02821e-013 5.96354e-015
lhumerus -5.66889 -28.6404 93.8528
lradius 142.598
lwrist 62.4952
lhand 47.6142 37.0821
lfingers 7.12502
lthumb 68.3178 37.5376
rfemur 3.6761 -7.18986 20.8513
rtibia 29.2156
rfoot -24.801 -21.7788
rtoes -16.5351
lfemur -8.18881 -17.172 -18.2525
ltibia 34.1163
lfoot -18.2277 -11.589
ltoes -9.43161
1393
root -0.358576 16.8087 -0.0160306 -6.2395 27.1295 0.0632685
lowerback 0.951956 1.57178 -0.440895
upperback 5.18779 2.09954 1.10052
thorax 4.7602 1.01502 1.45123
lowerneck 14.4061 -5.55979 -21.7448
upperneck 10.8481 -11.5013 21.0069
head 3.26721 -6.45321 10.4676
rclavicle 6.04554e-014 -7.15625e-015
rhumerus -19.1507 13.7663 -91.8162
rradius 145.78
rwrist -48.6634
rhand 46.7024 20.6108
rfingers 7.12502
rthumb 67.6593 18.5952
lclavicle 6.04554e-014 -7.15625e-015
lhumerus -5.48525 -28.8504 93.6814
lradius 142.575
lwrist 62.4168
lhand 47.6348 37.2364
lfingers 7.12502
lthumb 68.3325 37.6555
rfemur 3.66875 -7.22415 20.9919
rtibia 29.1855
rfoot -24.8345 -21.7264
rtoes -16.4861
lfemur -8.18947 -17.1795 -18.1049
ltibia 34.0263
lfoot -18.0999 -11.6568
ltoes -9.04116
1394
root -0.36356 16.8114 -0.0199203 -6.18405 27.1884 0.134158
lowerback 0.98386 1.54914 -0.487239
upperback 5.18332 2.0706 1.08767
thorax 4.73702 0.999145 1.46181
lowerneck 14.3757 -5.56036 -21.7858
upperneck 10.776 -11.4984 21.0442
head 3.25437 -6.45208 10.4862
rclavicle -1.04362e-015 -1.19271e-015
rhumerus -19.1008 13.7296 -91.8398
rradius 145.709
rwrist -48.5816
rhand 46.5823 20.6262
rfingers 7.12502
rthumb 67.5713 18.4121
lclavicle -1.04362e-015 -1.19271e-015
lhumerus -5.34546 -29.0748 93.5903
lradius 142.53
lwrist 62.3417
lhand 47.7247 37.2247
lfingers 7.12502
lthumb 68.3965 37.4845
rfemur 3.63007 -7.28096 20.924
rtibia 29.1867
rfoot -24.8528 -21.6803
rtoes -16.4789
lfemur -8.2022 -17.1915 -18.1489
ltibia 33.9408
lfoot -18.0982 -11.6865
ltoes -9.20914
1395
root -0.369439 16.8135 -0.0238697 -6.10958 27.2532 0.253884
lowerback 1.03957 1.52915 -0.608021
upperback 5.16875 2.04615 1.08133
thorax 4.68693 0.982457 1.51987
lowerneck 14.3897 -5.54981 -21.8745
upperneck 10.7073 -11.4966 21.1024
head 3.23966 -6.45565 10.5233
rclavicle 1.66731e-014 2.38542e-015
rhumerus -19.0957 13.7099 -91.8521
rradius 145.681
rwrist -48.5844
rhand 46.599 20.5816
rfingers 7.12502
rthumb 67.5835 18.3949
lclavicle 1.66731e-014 2.38542e-015
lhumerus -5.28724 -29.3062 93.5672
lradius 142.514
lwrist 62.2153
lhand 47.7206 37.0454
lfingers 7.12502
lthumb 68.3936 37.3125
rfemur 3.58157 -7.3072 20.8208
rtibia 29.1981
rfoot -24.8677 -21.7024
rtoes -16.2931
lfemur -8.22041 -17.1645 -18.241
ltibia 33.8718
lfoot -18.1014 -11.7522
ltoes -9.54312
1396
root -0.374929 16.8147 -0.0284752 -6.00245 27.31 0.373031
lowerback 1.07298 1.51185 -0.740851
upperback 5.13664 2.02514 1.07665
thorax 4.6307 0.967021 1.58685
lowerneck 14.3999 -5.55473 -21.9102
upperneck 10.6613 -11.5061 21.1101
head 3.22944 -6.46244 10.5318
rclavicle 6.60959e-015 2.78299e-015
rhumerus -19.1102 13.7694 -91.9306
rradius 145.678
rwrist -48.6019
rhand 46.6296 20.5748
rfingers 7.12502
rthumb 67.606 18.4386
lclavicle 6.60959e-015 2.78299e-015
lhumerus -5.20252 -29.5035 93.5344
lradius 142.525
lwrist 62.1566
lhand 47.7074 37.102
lfingers 7.12502
lthumb 68.3842 37.3926
rfemur 3.50684 -7.32849 20.7234
rtibia 29.187
rfoot -24.8955 -21.7079
rtoes -15.8649
lfemur -8.2968 -17.1671 -18.3219
ltibia 33.8279
lfoot -18.05 -11.793
ltoes -9.43498
1397
root -0.380288 16.8155 -0.0302718 -6.06099 27.2611 0.273515
lowerback 1.13345 1.5161 -0.688111
upperback 5.13662 2.02847 1.11411
thorax 4.59667 0.970404 1.59421
lowerneck 14.365 -5.57782 -21.8806
upperneck 10.6637 -11.5276 21.1054
head 3.2387 -6.47016 10.5219
rclavicle 8.4235e-015 5.1684e-015
rhumerus -19.1149 13.7603 -92.0337
rradius 145.672
rwrist -48.6515
rhand 46.7994 20.5994
rfingers 7.12502
rthumb 67.7302 18.7453
lclavicle 8.4235e-015 5.1684e-015
lhumerus -5.08977 -29.6936 93.4415
lradius 142.508
lwrist 62.1687
lhand 47.7432 37.1637
lfingers 7.12502
lthumb 68.4096 37.3906
rfemur 3.50385 -7.21448 20.8741
rtibia 29.1702
rfoot -24.9079 -21.776
rtoes -15.9853
lfemur -8.28755 -17.1358 -18.1933
ltibia 33.7961
lfoot -18.0076 -11.7735
ltoes -9.36903
1398
root -0.386842 16.816 -0.0307773 -6.17304 27.1784 0.0912086
lowerback 1.21135 1.52214 -0.549347
upperback 5.14689 2.03281 1.15852
thorax 4.56611 0.977687 1.56037
lowerneck 14.3582 -5.60795 -21.817
upperneck 10.604 -11.551 21.0835
head 3.22274 -6.47915 10.5002
rclavicle -2.95195e-014 8.74653e-015
rhumerus -19.0942 13.8015 -92.1395
rradius 145.7
rwrist -48.7607
rhand 46.8785 20.3565
rfingers 7.12502
rthumb 67.7878 18.6347
lclavicle -2.95195e-014 8.74653e-015
lhumerus -5.00117 -29.8193 93.294
lradius 142.487
lwrist 62.2236
lhand 48.0462 37.246
lfingers 7.12502
lthumb 68.6237 36.9281
rfemur 3.48452 -7.01177 21.1324
rtibia 29.1833
rfoot -24.8608 -21.9186
rtoes -16.1441
lfemur -8.25855 -17.0497 -17.9746
ltibia 33.7523
lfoot -17.9725 -11.8173
ltoes -9.5213
1399
root -0.389947 16.8165 -0.0353803 -6.08784 27.2702 0.25419
lowerback 1.2469 1.48966 -0.655715
upperback 5.15962 1.99299 1.10538
thorax 4.55881 0.95473 1.56309
lowerneck 14.3642 -5.62505 -21.742
upperneck 10.5088 -11.5527 21.0612
head 3.18843 -6.47751 10.4778
rclavicle -4.77332e-014 2.78299e-015
rhumerus -19.012 13.8278 -92.1763
rradius 145.705
rwrist -48.8774
rhand 46.9315 20.2426
rfingers 7.12502
rthumb 67.8264 18.6101
lclavicle -4.77332e-014 2.78299e-015
lhumerus -4.96903 -29.9711 93.2012
lradius 142.456
lwrist 62.2643
lhand 48.4449 37.1793
lfingers 7.12502
lthumb 68.9022 36.1274
rfemur 3.40017 -7.08063 20.958
rtibia 29.2075
rfoot -24.8234 -21.9998
rtoes -16.3272
lfemur -8.28629 -17.102 -18.138
ltibia 33.7112
lfoot -17.924 -11.8448
ltoes -9.40256
1400
root -0.391245 16.8161 -0.0403008 -5.9182 27.3917 0.599748
lowerback 1.28621 1.44008 -0.894853
upperback 5.17114 1.93421 0.99328
thorax 4.54665 0.918181 1.57858
lowerneck 14.3318 -5.62003 -21.6981
upperneck 10.4623 -11.5297 21.0686
head 3.17205 -6.4629 10.472
rclavicle -2.43511e-015 1.31198e-014
rhumerus -18.926 13.8684 -92.2376
rradius 145.687
rwrist -48.9866
rhand 47.0001 20.1695
rfingers 7.12502
rthumb 67.8762 18.6527
lclavicle -2.43511e-015 1.31198e-014
lhumerus -4.96574 -30.1322 93.0762
lradius 142.43
lwrist 62.2704
lhand 48.5015 37.0425
lfingers 7.12502
lthumb 68.9415 35.8846
rfemur 3.31862 -7.21835 20.5678
rtibia 29.2719
rfoot -24.8223 -21.9767
rtoes -16.48
lfemur -8.27747 -17.2036 -18.4945
ltibia 33.6595
lfoot -17.8826 -11.8419
ltoes -9.19915
1401
root -0.391807 16.813 -0.0439688 -5.94815 27.4062 0.624511
lowerback 1.36935 1.40703 -0.815876
upperback 5.18961 1.89063 0.940746
thorax 4.5243 0.901215 1.47703
lowerneck 14.2753 -5.64004 -21.6227
upperneck 10.4787 -11.5353 21.0201
head 3.1803 -6.45997 10.4377
rclavicle -2.41523e-014 -7.95139e-016
rhumerus -18.8637 13.9272 -92.3262
rradius 145.67
rwrist -49.0692
rhand 46.9996 20.1798
rfingers 7.12502
rthumb 67.8759 18.6622
lclavicle -2.41523e-014 -7.95139e-016
lhumerus -5.02803 -30.3335 92.9054
lradius 142.471
lwrist 62.3432
lhand 48.3421 37.2205
lfingers 7.12502
lthumb 68.8308 36.3597
rfemur 3.33898 -7.31457 20.5002
rtibia 29.3839
rfoot -24.828 -21.8923
rtoes -16.5522
lfemur -8.20476 -17.2202 -18.5358
ltibia 33.6062
lfoot -17.8704 -11.8377
ltoes -9.07608
